G04 ================== begin FILE IDENTIFICATION RECORD ==================*
G04 Layout Name:  F:/HardwareDesign/2015/CHZC-02/allegro/CHZC-02.brd*
G04 Film Name:    4-ETCH_BTM*
G04 File Format:  Gerber RS274X*
G04 File Origin:  Cadence Allegro 16.6-S020*
G04 Origin Date:  Thu May 21 16:52:00 2015*
G04 *
G04 Layer:  ETCH/BOTTOM*
G04 Layer:  PIN/BOTTOM*
G04 Layer:  VIA CLASS/BOTTOM*
G04 *
G04 Offset:    (0.000 0.000)*
G04 Mirror:    No*
G04 Mode:      Positive*
G04 Rotation:  0*
G04 FullContactRelief:  No*
G04 UndefLineWidth:     0.000*
G04 ================== end FILE IDENTIFICATION RECORD ====================*
%FSLAX25Y25*MOIN*%
%IR0*IPPOS*OFA0.00000B0.00000*MIA0B0*SFA1.00000B1.00000*%
%ADD11C,.141728*%
%ADD14C,.02*%
%ADD10R,.074799X.18898*%
%ADD16C,.06*%
%ADD13C,.025*%
%ADD15C,.017*%
%ADD17R,.06X.06*%
%ADD12C,.057091*%
%ADD18C,.006*%
%ADD19C,.013*%
%ADD20C,.015*%
%ADD21C,.067096*%
G75*
%LPD*%
G75*
G36*
G01X1346297Y1244094D02*
G02X1345934Y1244661I0J400D01*
G03X1340226Y1255949I-7351J3370D01*
G01X1340067Y1255982D01*
Y1275697D01*
X1334646D01*
Y1283358D01*
X1340067D01*
Y1303073D01*
X1340226Y1303106D01*
G03X1345934Y1314394I-1644J7918D01*
G02X1346297Y1314961I364J167D01*
G01X1480475D01*
G02X1480838Y1314394I0J-400D01*
G03X1491559Y1303673I7351J-3370D01*
G02X1492126Y1303309I167J-364D01*
G01Y1255746D01*
G02X1491559Y1255382I-400J0D01*
G03X1480838Y1244661I-3370J-7351D01*
G02X1480475Y1244094I-364J-167D01*
G01X1346297D01*
G37*
%LPC*%
G75*
G36*
G01X1349782Y1270126D02*
G02X1348959Y1271919I-3326J-441D01*
G03X1349656Y1272153I298J266D01*
G02X1349740Y1272571I1844J-152D01*
G01X1349750Y1272601D01*
Y1283899D01*
X1349740Y1283929D01*
G02X1353260I1760J571D01*
G01X1353250Y1283899D01*
Y1280584D01*
G03X1353801Y1280213I400J0D01*
G02X1355816Y1279800I699J-1713D01*
G01X1378684D01*
G02X1380848Y1276856I1316J-1300D01*
G03Y1276144I183J-356D01*
G02X1378206Y1274049I-848J-1644D01*
G01X1378168Y1274200D01*
X1355816D01*
G02X1353801Y1273787I-1316J1300D01*
G03X1353250Y1273416I-151J-370D01*
G01Y1272601D01*
X1353260Y1272571D01*
G02X1350414Y1270502I-1760J-571D01*
G03X1349782Y1270126I-235J-324D01*
G37*
G36*
G01X1362816Y1292200D02*
G02Y1294800I-1316J1300D01*
G01X1364270D01*
G03X1364666Y1295254I0J400D01*
G02X1367816Y1296800I1834J246D01*
G01X1439461D01*
X1441889Y1299228D01*
Y1306217D01*
G02X1446768Y1311786I1300J3783D01*
G03X1447484I358J179D01*
G02X1454642I3579J-1787D01*
G03X1455358I358J179D01*
G02X1462516I3579J-1787D01*
G03X1463232I358J179D01*
G02Y1308214I3579J-1787D01*
G03X1462516I-358J-179D01*
G02X1455358I-3579J1786D01*
G03X1454642I-358J-179D01*
G02X1452363Y1306217I-3579J1786D01*
G01Y1305661D01*
X1452300Y1305598D01*
Y1295961D01*
X1448539Y1292200D01*
X1362816D01*
G37*
G36*
G01X1447189Y1246000D02*
X1439189D01*
Y1254000D01*
X1447189D01*
Y1251773D01*
G03X1447946Y1251591I400J0D01*
G02X1454360Y1251176I3118J-1591D01*
G03X1455118Y1251191I377J134D01*
G02X1457637Y1253783I3819J-1191D01*
G01Y1267524D01*
X1454661Y1270500D01*
X1398316D01*
G02X1395699Y1273116I-1316J1300D01*
G03Y1273684I-281J284D01*
G02X1398316Y1276300I1301J1316D01*
G01X1464539D01*
X1468300Y1272539D01*
Y1253713D01*
G02X1463232Y1248214I-1489J-3713D01*
G03X1462516I-358J-179D01*
G02X1455118Y1248809I-3579J1787D01*
G03X1454360Y1248824I-382J-119D01*
G02X1447946Y1248409I-3297J1176D01*
G03X1447189Y1248227I-356J-182D01*
G01Y1246000D01*
G37*
G54D21*
X1346457Y1289370D03*
%LPD*%
G75*
G36*
G01X1462516Y1251786D02*
G03X1460237Y1253783I-3579J-1786D01*
G01Y1268602D01*
X1455739Y1273100D01*
X1398316D01*
G03X1398157Y1273244I-1316J-1300D01*
G02Y1273556I125J156D01*
G03X1398316Y1273700I-1157J1444D01*
G01X1463461D01*
X1465700Y1271461D01*
Y1254528D01*
X1465511Y1254339D01*
Y1253783D01*
G03X1463232Y1251786I1300J-3783D01*
G02X1462516I-358J179D01*
G37*
G36*
G01X1449700Y1306239D02*
Y1297039D01*
X1447461Y1294800D01*
X1442105D01*
G02X1441822Y1295483I0J400D01*
G01X1444489Y1298150D01*
Y1306217D01*
G03X1446768Y1308214I-1300J3783D01*
G02X1447484I358J-179D01*
G03X1449700Y1306239I3579J1786D01*
G37*
G54D10*
X1335827Y1265748D03*
Y1293308D03*
G54D20*
G01X1344488Y1301181D02*
X1342720Y1299413D01*
Y1295210D01*
X1340817Y1293308D01*
G01D02*
X1335827D01*
G01X1351500Y1272000D02*
Y1284500D01*
G54D11*
X1338583Y1248032D03*
Y1311024D03*
X1488189Y1248032D03*
Y1311024D03*
G54D12*
X1346457Y1289370D03*
Y1269685D03*
G54D13*
X1344488Y1301181D03*
X1356000Y1269450D03*
X1356500Y1293500D03*
X1404500Y1313500D03*
G54D14*
X1374013Y1246060D03*
Y1263777D03*
X1362202Y1299210D03*
X1406856Y1265862D03*
X1405000Y1279500D03*
X1426541Y1283579D03*
X1427162Y1265746D03*
X1426541Y1309169D03*
Y1299327D03*
X1462596Y1255903D03*
X1438974Y1265746D03*
X1450784D03*
X1462596D03*
X1446848Y1297242D03*
Y1303147D03*
G54D15*
X1351500Y1272000D03*
Y1284500D03*
X1354500Y1275500D03*
Y1278500D03*
X1361500Y1293500D03*
X1366500Y1295500D03*
X1399500Y1260500D03*
X1397000Y1271800D03*
X1380000Y1274500D03*
Y1278500D03*
X1397000Y1275000D03*
X1405000Y1300000D03*
G54D16*
X1466811Y1250000D03*
X1458937D03*
X1451063D03*
X1443189Y1310000D03*
X1451063D03*
X1458937D03*
X1466811D03*
G54D17*
X1443189Y1250000D03*
G54D18*
G01X1354500Y1275500D02*
X1379000D01*
X1380000Y1274500D01*
G01X1354500Y1278500D02*
X1380000D01*
G01X1361500Y1293500D02*
X1448000D01*
X1451000Y1296500D01*
Y1306137D01*
X1451063Y1306200D01*
Y1310000D01*
G01X1366500Y1295500D02*
X1440000D01*
X1443189Y1298689D01*
Y1310000D01*
G01X1458937Y1250000D02*
Y1268063D01*
X1455200Y1271800D01*
X1397000D01*
G01Y1275000D02*
X1464000D01*
X1467000Y1272000D01*
Y1253989D01*
X1466811Y1253800D01*
Y1250000D01*
G54D19*
G01X1346457Y1266130D02*
Y1269685D01*
G01D02*
Y1273240D01*
G01X1342902Y1269685D02*
X1346457D01*
G01D02*
X1350012D01*
G01X1346457Y1285816D02*
Y1289370D01*
G01X1335827Y1283158D02*
Y1293308D01*
G01Y1265748D02*
Y1275897D01*
G01Y1265748D02*
X1340267D01*
G01X1346457Y1289370D02*
Y1292925D01*
G01X1342902Y1289370D02*
X1346457D01*
G01D02*
X1350012D01*
G01X1451063Y1246300D02*
Y1250000D01*
G01D02*
Y1253700D01*
M02*
