G04 ================== begin FILE IDENTIFICATION RECORD ==================*
G04 Layout Name:  F:/HardwareDesign/2015/CHZC-02/allegro/CHZC-02.brd*
G04 Film Name:    A-PASTEMASK_TOP*
G04 File Format:  Gerber RS274X*
G04 File Origin:  Cadence Allegro 16.6-S020*
G04 Origin Date:  Thu May 21 16:52:00 2015*
G04 *
G04 Layer:  PACKAGE GEOMETRY/PASTEMASK_TOP*
G04 Layer:  PIN/PASTEMASK_TOP*
G04 *
G04 Offset:    (0.000 0.000)*
G04 Mirror:    No*
G04 Mode:      Positive*
G04 Rotation:  0*
G04 FullContactRelief:  No*
G04 UndefLineWidth:     0.000*
G04 ================== end FILE IDENTIFICATION RECORD ====================*
%FSLAX25Y25*MOIN*%
%IR0*IPPOS*OFA0.00000B0.00000*MIA0B0*SFA1.00000B1.00000*%
%ADD11C,.141728*%
%ADD21O,.03937X.19685*%
%ADD19R,.07874X.129921*%
%ADD17O,.025X.08*%
%ADD20R,.065X.04*%
%ADD12R,.04X.065*%
%ADD10R,.074799X.18898*%
%ADD22C,.06*%
%ADD18R,.025X.085*%
%ADD16R,.04X.04*%
%ADD23R,.06X.06*%
%ADD13C,.057091*%
%ADD14R,.055118X.015748*%
%ADD15R,.059059X.03937*%
%LPD*%
G75*
G54D10*
X1335827Y1265748D03*
Y1293308D03*
G54D20*
X1399500Y1255500D03*
Y1243500D03*
G54D11*
X1338583Y1248032D03*
Y1311024D03*
X1488189Y1248032D03*
Y1311024D03*
G54D12*
X1344500Y1259500D03*
X1356500D03*
G54D21*
X1414500Y1263315D03*
Y1302685D03*
G54D13*
X1346457Y1289370D03*
Y1269685D03*
G54D22*
X1466811Y1250000D03*
X1458937D03*
X1451063D03*
X1443189Y1310000D03*
X1451063D03*
X1458937D03*
X1466811D03*
G54D14*
X1346457Y1274410D03*
Y1276968D03*
Y1279528D03*
Y1282087D03*
Y1284646D03*
G54D23*
X1443189Y1250000D03*
G54D15*
X1364598Y1246945D03*
Y1256000D03*
Y1265055D03*
G54D16*
X1349500Y1247000D03*
X1356500D03*
X1369000Y1273500D03*
X1362000D03*
X1369000Y1278500D03*
X1362000D03*
X1350394Y1308181D03*
Y1301181D03*
X1406500Y1255000D03*
Y1248000D03*
X1392500Y1273500D03*
X1385500D03*
X1392500Y1278500D03*
X1385500D03*
X1400500Y1286500D03*
Y1279500D03*
Y1313500D03*
Y1306500D03*
Y1293000D03*
Y1300000D03*
G54D17*
X1376500Y1286689D03*
X1371500D03*
X1366500D03*
X1361500D03*
X1356500Y1310311D03*
X1361500D03*
X1366500D03*
X1371500D03*
X1376500D03*
X1391500Y1286689D03*
X1386500D03*
X1381500D03*
Y1310311D03*
X1386500D03*
X1391500D03*
G54D18*
X1356500Y1286689D03*
G54D19*
X1389402Y1256000D03*
M02*
