G04 ================== begin FILE IDENTIFICATION RECORD ==================*
G04 Layout Name:  F:/HardwareDesign/2015/CHZC-02/allegro/CHZC-02.brd*
G04 Film Name:    C-SOLDMASK_TOP*
G04 File Format:  Gerber RS274X*
G04 File Origin:  Cadence Allegro 16.6-S020*
G04 Origin Date:  Thu May 21 16:52:00 2015*
G04 *
G04 Layer:  BOARD GEOMETRY/SOLDERMASK_TOP*
G04 Layer:  PACKAGE GEOMETRY/SOLDERMASK_TOP*
G04 Layer:  PIN/SOLDERMASK_TOP*
G04 Layer:  VIA CLASS/SOLDERMASK_TOP*
G04 *
G04 Offset:    (0.000 0.000)*
G04 Mirror:    No*
G04 Mode:      Positive*
G04 Rotation:  0*
G04 FullContactRelief:  No*
G04 UndefLineWidth:     0.000*
G04 ================== end FILE IDENTIFICATION RECORD ====================*
%FSLAX25Y25*MOIN*%
%IR0*IPPOS*OFA0.00000B0.00000*MIA0B0*SFA1.00000B1.00000*%
%ADD14R,.059059X.019689*%
%ADD21O,.043311X.200791*%
%ADD11C,.145669*%
%ADD19R,.082681X.133858*%
%ADD10R,.07874X.192909*%
%ADD18R,.03X.09*%
%ADD17O,.03X.085*%
%ADD20R,.07X.045*%
%ADD12R,.045X.07*%
%ADD13C,.06102*%
%ADD22C,.065*%
%ADD16R,.045X.045*%
%ADD23R,.065X.065*%
%ADD15R,.062988X.043311*%
%ADD24C,.004*%
G75*
%LPD*%
G75*
G54D10*
X1335827Y1265748D03*
Y1293308D03*
G54D20*
X1399500Y1255500D03*
Y1243500D03*
G54D11*
X1338583Y1248032D03*
Y1311024D03*
X1488189Y1248032D03*
Y1311024D03*
G54D12*
X1344500Y1259500D03*
X1356500D03*
G54D21*
X1414500Y1263315D03*
Y1302685D03*
G54D22*
X1466811Y1250000D03*
X1458937D03*
X1451063D03*
X1443189Y1310000D03*
X1451063D03*
X1458937D03*
X1466811D03*
G54D13*
X1346457Y1289370D03*
Y1269685D03*
G54D23*
X1443189Y1250000D03*
G54D14*
X1346457Y1274410D03*
Y1276968D03*
Y1279528D03*
Y1282087D03*
Y1284646D03*
G54D24*
G01X1487000Y1257000D02*
X1491000Y1257583D01*
X1487000Y1258250D01*
X1491000Y1258917D01*
X1487000Y1259500D01*
G01D02*
X1491000Y1260083D01*
X1487000Y1260750D01*
X1491000Y1261417D01*
X1487000Y1262000D01*
G01D02*
X1491000Y1262583D01*
X1487000Y1263250D01*
X1491000Y1263917D01*
X1487000Y1264500D01*
G01X1491133Y1265750D02*
X1491067Y1265667D01*
X1490933D01*
X1490867Y1265750D01*
X1490933Y1265833D01*
X1491067D01*
X1491133Y1265750D01*
G01X1488867Y1268583D02*
X1488667Y1268750D01*
X1488333Y1268875D01*
X1487867Y1268958D01*
X1487467Y1268875D01*
X1487200Y1268708D01*
X1487000Y1268417D01*
Y1267292D01*
X1491000D01*
Y1268667D01*
X1490733Y1268958D01*
X1490333Y1269125D01*
X1489867Y1269208D01*
X1489400Y1269125D01*
X1489000Y1268875D01*
X1488867Y1268583D01*
Y1267292D01*
G01X1491000Y1271583D02*
Y1269917D01*
X1487000D01*
Y1271583D01*
G01X1488933Y1270917D02*
Y1269917D01*
G01X1491000Y1273250D02*
X1489200D01*
X1487000Y1272417D01*
G01Y1274083D02*
X1489200Y1273250D01*
G01X1491000Y1275750D02*
X1490933Y1275417D01*
X1490667Y1275125D01*
X1490267Y1274875D01*
X1489800Y1274708D01*
X1489267Y1274625D01*
X1488733D01*
X1488200Y1274708D01*
X1487733Y1274875D01*
X1487333Y1275125D01*
X1487067Y1275417D01*
X1487000Y1275750D01*
X1487067Y1276083D01*
X1487333Y1276375D01*
X1487733Y1276625D01*
X1488200Y1276792D01*
X1488733Y1276875D01*
X1489267D01*
X1489800Y1276792D01*
X1490267Y1276625D01*
X1490667Y1276375D01*
X1490933Y1276083D01*
X1491000Y1275750D01*
G01Y1277292D02*
X1487000D01*
X1491000Y1279208D01*
X1487000D01*
G01X1491000Y1279833D02*
X1487000D01*
Y1280667D01*
X1487200Y1281000D01*
X1487467Y1281250D01*
X1487867Y1281458D01*
X1488333Y1281625D01*
X1489000Y1281667D01*
X1489667Y1281625D01*
X1490133Y1281458D01*
X1490533Y1281250D01*
X1490800Y1281000D01*
X1491000Y1280667D01*
Y1279833D01*
G01X1487333Y1284167D02*
X1487133Y1283917D01*
X1487000Y1283625D01*
Y1283292D01*
X1487200Y1282917D01*
X1487533Y1282625D01*
X1487933Y1282417D01*
X1488600Y1282250D01*
X1489200Y1282208D01*
X1489800Y1282292D01*
X1490200Y1282417D01*
X1490600Y1282667D01*
X1490867Y1282958D01*
X1491000Y1283250D01*
Y1283542D01*
X1490867Y1283833D01*
X1490667Y1284083D01*
X1490400Y1284292D01*
G01X1491000Y1285750D02*
X1490933Y1285417D01*
X1490667Y1285125D01*
X1490267Y1284875D01*
X1489800Y1284708D01*
X1489267Y1284625D01*
X1488733D01*
X1488200Y1284708D01*
X1487733Y1284875D01*
X1487333Y1285125D01*
X1487067Y1285417D01*
X1487000Y1285750D01*
X1487067Y1286083D01*
X1487333Y1286375D01*
X1487733Y1286625D01*
X1488200Y1286792D01*
X1488733Y1286875D01*
X1489267D01*
X1489800Y1286792D01*
X1490267Y1286625D01*
X1490667Y1286375D01*
X1490933Y1286083D01*
X1491000Y1285750D01*
G01Y1287417D02*
X1487000D01*
Y1288458D01*
X1487200Y1288792D01*
X1487467Y1289000D01*
X1488000Y1289083D01*
X1488533Y1289000D01*
X1488867Y1288750D01*
X1489067Y1288458D01*
Y1287417D01*
G01Y1288458D02*
X1491000Y1289083D01*
G01Y1291583D02*
Y1289917D01*
X1487000D01*
Y1291583D01*
G01X1488933Y1290917D02*
Y1289917D01*
G01X1491133Y1293250D02*
X1491067Y1293167D01*
X1490933D01*
X1490867Y1293250D01*
X1490933Y1293333D01*
X1491067D01*
X1491133Y1293250D01*
G01X1491000Y1294792D02*
X1487000D01*
X1491000Y1296708D01*
X1487000D01*
G01X1491000Y1299083D02*
Y1297417D01*
X1487000D01*
Y1299083D01*
G01X1488933Y1298417D02*
Y1297417D01*
G01X1487000Y1300750D02*
X1491000D01*
G01X1487000Y1299792D02*
Y1301708D01*
G54D15*
X1364598Y1246945D03*
Y1256000D03*
Y1265055D03*
G54D16*
X1349500Y1247000D03*
X1356500D03*
X1369000Y1273500D03*
X1362000D03*
X1369000Y1278500D03*
X1362000D03*
X1350394Y1308181D03*
Y1301181D03*
X1406500Y1255000D03*
Y1248000D03*
X1392500Y1273500D03*
X1385500D03*
X1392500Y1278500D03*
X1385500D03*
X1400500Y1286500D03*
Y1279500D03*
Y1313500D03*
Y1306500D03*
Y1293000D03*
Y1300000D03*
G54D17*
X1376500Y1286689D03*
X1371500D03*
X1366500D03*
X1361500D03*
X1356500Y1310311D03*
X1361500D03*
X1366500D03*
X1371500D03*
X1376500D03*
X1391500Y1286689D03*
X1386500D03*
X1381500D03*
Y1310311D03*
X1386500D03*
X1391500D03*
G54D18*
X1356500Y1286689D03*
G54D19*
X1389402Y1256000D03*
M02*
