M48
INCH,LZ
T01C.012
T02C.015
T03C.02
T04C.033461
T05C.04
T06C.07087
;LEADER: 1 
;HEADER: 
;CODE  : ASCII 
;FILE  : CHZC-02-1-2.drl for  ... layers TOP and BOTTOM
;T01 Holesize 1. = 12.000000 Tolerance = +0.000000/-0.000000 PLATED MILS Quantity = 12
;T02 Holesize 2. = 15.000000 Tolerance = +0.000000/-0.000000 PLATED MILS Quantity = 15
;T03 Holesize 3. = 20.000000 Tolerance = +0.000000/-0.000000 PLATED MILS Quantity = 4
;T04 Holesize 4. = 33.461000 Tolerance = +0.000000/-0.000000 PLATED MILS Quantity = 2
;T05 Holesize 5. = 40.000000 Tolerance = +0.000000/-0.000000 PLATED MILS Quantity = 8
;T06 Holesize 6. = 70.870000 Tolerance = +0.000000/-0.000000 PLATED MILS Quantity = 4
%
G90
T01
X13665Y12955
X1397Y1275
X13545Y12785
X138Y12785
X13545Y12755
X138Y12745
X13615Y12935
X13515Y12845
X13515Y1272
X1397Y12718
X13995Y12605
X1405Y13
T02
X1405Y12795
X1462596Y1255903
X1462596Y1265746
X1446848Y1303147
X1446848Y1297242
X1450784Y1265746
R02X-0011811
X1406856Y1265862
X1426541Y1283579
X1426541Y1299327
X1426541Y1309169
X1362202Y129921
X1374013Y124606
X1374013Y1263777
T03
X1356Y126945
X1344488Y1301181
X13565Y12935
X14045Y13135
T04
X1346457Y1269685
X1346457Y128937
T05
X1443189Y125
R03X0007874
X1466811Y131
R03X-0007874
T06
X1338583Y1248032
X1338583Y1311024
X1488189Y1248032
X1488189Y1311024
M30
