G04 ================== begin FILE IDENTIFICATION RECORD ==================*
G04 Layout Name:  F:/HardwareDesign/2015/CHZC-02/allegro/CHZC-02.brd*
G04 Film Name:    E-SILKSCREEN_TOP*
G04 File Format:  Gerber RS274X*
G04 File Origin:  Cadence Allegro 16.6-S020*
G04 Origin Date:  Thu May 21 16:52:00 2015*
G04 *
G04 Layer:  BOARD GEOMETRY/SILKSCREEN_TOP*
G04 Layer:  PACKAGE GEOMETRY/SILKSCREEN_TOP*
G04 Layer:  REF DES/SILKSCREEN_TOP*
G04 *
G04 Offset:    (0.000 0.000)*
G04 Mirror:    No*
G04 Mode:      Positive*
G04 Rotation:  0*
G04 FullContactRelief:  No*
G04 UndefLineWidth:     0.000*
G04 ================== end FILE IDENTIFICATION RECORD ====================*
%FSLAX25Y25*MOIN*%
%IR0*IPPOS*OFA0.00000B0.00000*MIA0B0*SFA1.00000B1.00000*%
%ADD10C,.003*%
%ADD11C,.004*%
%ADD12C,.005*%
G75*
%LPD*%
G75*
G36*
G01X1366000Y1270000D02*
X1364000Y1268000D01*
X1362000Y1270000D01*
X1366000D01*
G37*
G36*
G01X1358081Y1279100D02*
G03I-1581J0D01*
G37*
G36*
G01X1353500Y1256500D02*
Y1262500D01*
X1350500D01*
Y1256500D01*
X1353500D01*
G37*
G36*
G01X1396500Y1246500D02*
X1402500D01*
Y1249500D01*
X1396500D01*
Y1246500D01*
G37*
G36*
G01X1427500Y1246000D02*
Y1257000D01*
X1438500Y1246000D01*
X1427500D01*
G37*
G54D10*
G01X1457500Y1254900D02*
X1459650D01*
X1460100Y1255100D01*
X1460400Y1255500D01*
X1460500Y1256000D01*
X1460400Y1256500D01*
X1460100Y1256900D01*
X1459650Y1257100D01*
X1457500D01*
G01X1460100Y1258250D02*
X1460350Y1258650D01*
X1460500Y1259100D01*
Y1259500D01*
X1460350Y1259900D01*
X1460100Y1260200D01*
X1459750Y1260350D01*
X1459400Y1260250D01*
X1459100Y1260000D01*
X1458900Y1259550D01*
X1458800Y1258950D01*
X1458600Y1258600D01*
X1458250Y1258450D01*
X1457900Y1258550D01*
X1457650Y1258800D01*
X1457500Y1259150D01*
Y1259500D01*
X1457600Y1259850D01*
X1457850Y1260150D01*
G01X1458900Y1263000D02*
X1458750Y1263200D01*
X1458500Y1263350D01*
X1458150Y1263450D01*
X1457850Y1263350D01*
X1457650Y1263150D01*
X1457500Y1262800D01*
Y1261450D01*
X1460500D01*
Y1263100D01*
X1460300Y1263450D01*
X1460000Y1263650D01*
X1459650Y1263750D01*
X1459300Y1263650D01*
X1459000Y1263350D01*
X1458900Y1263000D01*
Y1261450D01*
G01X1459500Y1265250D02*
Y1266550D01*
G01X1460500Y1268100D02*
X1457500D01*
Y1269100D01*
X1457650Y1269500D01*
X1457850Y1269800D01*
X1458150Y1270050D01*
X1458500Y1270250D01*
X1459000Y1270300D01*
X1459500Y1270250D01*
X1459850Y1270050D01*
X1460150Y1269800D01*
X1460350Y1269500D01*
X1460500Y1269100D01*
Y1268100D01*
G01Y1271350D02*
X1457500D01*
X1460500Y1273650D01*
X1457500D01*
G01X1465000Y1254900D02*
X1467150D01*
X1467600Y1255100D01*
X1467900Y1255500D01*
X1468000Y1256000D01*
X1467900Y1256500D01*
X1467600Y1256900D01*
X1467150Y1257100D01*
X1465000D01*
G01X1467600Y1258250D02*
X1467850Y1258650D01*
X1468000Y1259100D01*
Y1259500D01*
X1467850Y1259900D01*
X1467600Y1260200D01*
X1467250Y1260350D01*
X1466900Y1260250D01*
X1466600Y1260000D01*
X1466400Y1259550D01*
X1466300Y1258950D01*
X1466100Y1258600D01*
X1465750Y1258450D01*
X1465400Y1258550D01*
X1465150Y1258800D01*
X1465000Y1259150D01*
Y1259500D01*
X1465100Y1259850D01*
X1465350Y1260150D01*
G01X1466400Y1263000D02*
X1466250Y1263200D01*
X1466000Y1263350D01*
X1465650Y1263450D01*
X1465350Y1263350D01*
X1465150Y1263150D01*
X1465000Y1262800D01*
Y1261450D01*
X1468000D01*
Y1263100D01*
X1467800Y1263450D01*
X1467500Y1263650D01*
X1467150Y1263750D01*
X1466800Y1263650D01*
X1466500Y1263350D01*
X1466400Y1263000D01*
Y1261450D01*
G01X1467000Y1265250D02*
Y1266550D01*
G01X1468000Y1268100D02*
X1465000D01*
Y1269100D01*
X1465150Y1269500D01*
X1465350Y1269800D01*
X1465650Y1270050D01*
X1466000Y1270250D01*
X1466500Y1270300D01*
X1467000Y1270250D01*
X1467350Y1270050D01*
X1467650Y1269800D01*
X1467850Y1269500D01*
X1468000Y1269100D01*
Y1268100D01*
G01Y1271500D02*
X1465000D01*
Y1272700D01*
X1465150Y1273100D01*
X1465500Y1273400D01*
X1465900Y1273500D01*
X1466300Y1273400D01*
X1466600Y1273150D01*
X1466750Y1272700D01*
Y1271500D01*
G01X1451000Y1256300D02*
Y1257300D01*
X1451900D01*
X1452200Y1257000D01*
X1452400Y1256650D01*
X1452500Y1256150D01*
X1452400Y1255650D01*
X1452200Y1255300D01*
X1451900Y1255000D01*
X1451550Y1254800D01*
X1451150Y1254700D01*
X1450800D01*
X1450500Y1254800D01*
X1450150Y1255000D01*
X1449850Y1255300D01*
X1449650Y1255600D01*
X1449500Y1256000D01*
Y1256350D01*
X1449600Y1256750D01*
X1449800Y1257050D01*
G01X1452500Y1258150D02*
X1449500D01*
X1452500Y1260450D01*
X1449500D01*
G01X1452500Y1261500D02*
X1449500D01*
Y1262500D01*
X1449650Y1262900D01*
X1449850Y1263200D01*
X1450150Y1263450D01*
X1450500Y1263650D01*
X1451000Y1263700D01*
X1451500Y1263650D01*
X1451850Y1263450D01*
X1452150Y1263200D01*
X1452350Y1262900D01*
X1452500Y1262500D01*
Y1261500D01*
G01X1443900Y1254400D02*
X1444250Y1254700D01*
X1444450Y1255100D01*
X1444500Y1255550D01*
X1444450Y1255950D01*
X1444200Y1256350D01*
X1443900Y1256600D01*
X1443600Y1256650D01*
X1443250Y1256550D01*
X1443000Y1256200D01*
X1442900Y1255850D01*
Y1255400D01*
G01Y1255850D02*
X1442750Y1256150D01*
X1442500Y1256400D01*
X1442200Y1256500D01*
X1441900Y1256400D01*
X1441650Y1256150D01*
X1441500Y1255700D01*
X1441550Y1255250D01*
X1441750Y1254800D01*
G01X1441500Y1257550D02*
X1444500Y1258800D01*
X1441500Y1260050D01*
G01X1443900Y1261000D02*
X1444250Y1261300D01*
X1444450Y1261700D01*
X1444500Y1262150D01*
X1444450Y1262550D01*
X1444200Y1262950D01*
X1443900Y1263200D01*
X1443600Y1263250D01*
X1443250Y1263150D01*
X1443000Y1262800D01*
X1442900Y1262450D01*
Y1262000D01*
G01Y1262450D02*
X1442750Y1262750D01*
X1442500Y1263000D01*
X1442200Y1263100D01*
X1441900Y1263000D01*
X1441650Y1262750D01*
X1441500Y1262300D01*
X1441550Y1261850D01*
X1441750Y1261400D01*
G01X1452500Y1295500D02*
X1449500D01*
Y1296750D01*
X1449650Y1297150D01*
X1449850Y1297400D01*
X1450250Y1297500D01*
X1450650Y1297400D01*
X1450900Y1297100D01*
X1451050Y1296750D01*
Y1295500D01*
G01Y1296750D02*
X1452500Y1297500D01*
G01Y1298750D02*
X1449500Y1300850D01*
G01Y1298750D02*
X1452500Y1300850D01*
G01X1441500Y1296500D02*
X1444500D01*
G01X1441500Y1295350D02*
Y1297650D01*
G01X1444500Y1298750D02*
X1441500Y1300850D01*
G01Y1298750D02*
X1444500Y1300850D01*
G01X1460500Y1291000D02*
X1457500D01*
Y1292250D01*
X1457650Y1292650D01*
X1457850Y1292900D01*
X1458250Y1293000D01*
X1458650Y1292900D01*
X1458900Y1292600D01*
X1459050Y1292250D01*
Y1291000D01*
G01Y1292250D02*
X1460500Y1293000D01*
G01X1460100Y1294250D02*
X1460350Y1294650D01*
X1460500Y1295100D01*
Y1295500D01*
X1460350Y1295900D01*
X1460100Y1296200D01*
X1459750Y1296350D01*
X1459400Y1296250D01*
X1459100Y1296000D01*
X1458900Y1295550D01*
X1458800Y1294950D01*
X1458600Y1294600D01*
X1458250Y1294450D01*
X1457900Y1294550D01*
X1457650Y1294800D01*
X1457500Y1295150D01*
Y1295500D01*
X1457600Y1295850D01*
X1457850Y1296150D01*
G01X1457500Y1297350D02*
X1460500Y1298600D01*
X1457500Y1299850D01*
G01X1460500Y1301900D02*
X1457500D01*
X1458100Y1301300D01*
G01X1460500D02*
Y1302500D01*
G01X1468500Y1291000D02*
X1465500D01*
Y1292250D01*
X1465650Y1292650D01*
X1465850Y1292900D01*
X1466250Y1293000D01*
X1466650Y1292900D01*
X1466900Y1292600D01*
X1467050Y1292250D01*
Y1291000D01*
G01Y1292250D02*
X1468500Y1293000D01*
G01X1468100Y1294250D02*
X1468350Y1294650D01*
X1468500Y1295100D01*
Y1295500D01*
X1468350Y1295900D01*
X1468100Y1296200D01*
X1467750Y1296350D01*
X1467400Y1296250D01*
X1467100Y1296000D01*
X1466900Y1295550D01*
X1466800Y1294950D01*
X1466600Y1294600D01*
X1466250Y1294450D01*
X1465900Y1294550D01*
X1465650Y1294800D01*
X1465500Y1295150D01*
Y1295500D01*
X1465600Y1295850D01*
X1465850Y1296150D01*
G01X1465500Y1297350D02*
X1468500Y1298600D01*
X1465500Y1299850D01*
G01X1466000Y1300950D02*
X1465700Y1301250D01*
X1465550Y1301600D01*
X1465500Y1302000D01*
X1465600Y1302500D01*
X1465850Y1302850D01*
X1466150Y1302950D01*
X1466450Y1302900D01*
X1466700Y1302700D01*
X1467200Y1301700D01*
X1467550Y1301250D01*
X1468050Y1300950D01*
X1468500Y1300850D01*
Y1302950D01*
G54D11*
G01X1342500Y1295600D02*
X1342750Y1295300D01*
X1343050Y1295100D01*
X1343400Y1295000D01*
X1343800Y1295100D01*
X1344100Y1295300D01*
X1344400Y1295600D01*
X1344500Y1296000D01*
Y1298000D01*
G01X1346500Y1295000D02*
Y1298000D01*
X1345900Y1297400D01*
G01Y1295000D02*
X1347100D01*
G01X1344600Y1301750D02*
X1344300Y1301900D01*
X1343950Y1302000D01*
X1343550D01*
X1343100Y1301850D01*
X1342750Y1301600D01*
X1342500Y1301300D01*
X1342300Y1300800D01*
X1342250Y1300350D01*
X1342350Y1299900D01*
X1342500Y1299600D01*
X1342800Y1299300D01*
X1343150Y1299100D01*
X1343500Y1299000D01*
X1343850D01*
X1344200Y1299100D01*
X1344500Y1299250D01*
X1344750Y1299450D01*
G01X1346500Y1299000D02*
Y1302000D01*
X1345900Y1301400D01*
G01Y1299000D02*
X1347100D01*
G01X1354600Y1253750D02*
X1354300Y1253900D01*
X1353950Y1254000D01*
X1353550D01*
X1353100Y1253850D01*
X1352750Y1253600D01*
X1352500Y1253300D01*
X1352300Y1252800D01*
X1352250Y1252350D01*
X1352350Y1251900D01*
X1352500Y1251600D01*
X1352800Y1251300D01*
X1353150Y1251100D01*
X1353500Y1251000D01*
X1353850D01*
X1354200Y1251100D01*
X1354500Y1251250D01*
X1354750Y1251450D01*
G01X1355550Y1252250D02*
X1355900Y1252600D01*
X1356200Y1252800D01*
X1356600Y1252900D01*
X1356950Y1252800D01*
X1357200Y1252600D01*
X1357400Y1252300D01*
X1357450Y1251950D01*
X1357400Y1251650D01*
X1357200Y1251350D01*
X1356900Y1251100D01*
X1356550Y1251000D01*
X1356150Y1251100D01*
X1355800Y1251400D01*
X1355600Y1251850D01*
X1355550Y1252350D01*
X1355650Y1253000D01*
X1355800Y1253350D01*
X1356050Y1253700D01*
X1356400Y1253950D01*
X1356750Y1254000D01*
X1357100Y1253900D01*
X1357350Y1253650D01*
G01X1352500Y1274500D02*
Y1277500D01*
X1353750D01*
X1354150Y1277350D01*
X1354400Y1277150D01*
X1354500Y1276750D01*
X1354400Y1276350D01*
X1354100Y1276100D01*
X1353750Y1275950D01*
X1352500D01*
G01X1353750D02*
X1354500Y1274500D01*
G01X1356500D02*
Y1277500D01*
X1355900Y1276900D01*
G01Y1274500D02*
X1357100D01*
G01X1352500Y1270500D02*
Y1273500D01*
X1353750D01*
X1354150Y1273350D01*
X1354400Y1273150D01*
X1354500Y1272750D01*
X1354400Y1272350D01*
X1354100Y1272100D01*
X1353750Y1271950D01*
X1352500D01*
G01X1353750D02*
X1354500Y1270500D01*
G01X1355550Y1273000D02*
X1355850Y1273300D01*
X1356200Y1273450D01*
X1356600Y1273500D01*
X1357100Y1273400D01*
X1357450Y1273150D01*
X1357550Y1272850D01*
X1357500Y1272550D01*
X1357300Y1272300D01*
X1356300Y1271800D01*
X1355850Y1271450D01*
X1355550Y1270950D01*
X1355450Y1270500D01*
X1357550D01*
G01X1354600Y1267750D02*
X1354300Y1267900D01*
X1353950Y1268000D01*
X1353550D01*
X1353100Y1267850D01*
X1352750Y1267600D01*
X1352500Y1267300D01*
X1352300Y1266800D01*
X1352250Y1266350D01*
X1352350Y1265900D01*
X1352500Y1265600D01*
X1352800Y1265300D01*
X1353150Y1265100D01*
X1353500Y1265000D01*
X1353850D01*
X1354200Y1265100D01*
X1354500Y1265250D01*
X1354750Y1265450D01*
G01X1355400D02*
X1355700Y1265200D01*
X1356050Y1265050D01*
X1356500Y1265000D01*
X1356950Y1265100D01*
X1357300Y1265300D01*
X1357550Y1265650D01*
X1357600Y1266050D01*
X1357500Y1266450D01*
X1357250Y1266700D01*
X1356900Y1266900D01*
X1356550Y1266950D01*
X1356200Y1266900D01*
X1355750Y1266700D01*
X1355900Y1268000D01*
X1357250D01*
G01X1347900Y1315500D02*
Y1313350D01*
X1348100Y1312900D01*
X1348500Y1312600D01*
X1349000Y1312500D01*
X1349500Y1312600D01*
X1349900Y1312900D01*
X1350100Y1313350D01*
Y1315500D01*
G01X1352000Y1312500D02*
Y1315500D01*
X1351400Y1314900D01*
G01Y1312500D02*
X1352600D01*
G01X1406600Y1244250D02*
X1406300Y1244400D01*
X1405950Y1244500D01*
X1405550D01*
X1405100Y1244350D01*
X1404750Y1244100D01*
X1404500Y1243800D01*
X1404300Y1243300D01*
X1404250Y1242850D01*
X1404350Y1242400D01*
X1404500Y1242100D01*
X1404800Y1241800D01*
X1405150Y1241600D01*
X1405500Y1241500D01*
X1405850D01*
X1406200Y1241600D01*
X1406500Y1241750D01*
X1406750Y1241950D01*
G01X1408500Y1241500D02*
X1408850Y1241550D01*
X1409250Y1241700D01*
X1409500Y1241950D01*
X1409600Y1242300D01*
X1409500Y1242650D01*
X1409200Y1242950D01*
X1408750Y1243100D01*
X1408250D01*
X1407950Y1243200D01*
X1407700Y1243450D01*
X1407600Y1243800D01*
X1407750Y1244150D01*
X1408100Y1244400D01*
X1408500Y1244500D01*
X1408900Y1244400D01*
X1409250Y1244150D01*
X1409400Y1243800D01*
X1409300Y1243450D01*
X1409050Y1243200D01*
X1408750Y1243100D01*
X1408250D01*
X1407800Y1242950D01*
X1407500Y1242650D01*
X1407400Y1242300D01*
X1407500Y1241950D01*
X1407750Y1241700D01*
X1408150Y1241550D01*
X1408500Y1241500D01*
G01X1397400Y1266000D02*
Y1263850D01*
X1397600Y1263400D01*
X1398000Y1263100D01*
X1398500Y1263000D01*
X1399000Y1263100D01*
X1399400Y1263400D01*
X1399600Y1263850D01*
Y1266000D01*
G01X1400550Y1265500D02*
X1400850Y1265800D01*
X1401200Y1265950D01*
X1401600Y1266000D01*
X1402100Y1265900D01*
X1402450Y1265650D01*
X1402550Y1265350D01*
X1402500Y1265050D01*
X1402300Y1264800D01*
X1401300Y1264300D01*
X1400850Y1263950D01*
X1400550Y1263450D01*
X1400450Y1263000D01*
X1402550D01*
G01X1377000Y1272500D02*
Y1275500D01*
X1378250D01*
X1378650Y1275350D01*
X1378900Y1275150D01*
X1379000Y1274750D01*
X1378900Y1274350D01*
X1378600Y1274100D01*
X1378250Y1273950D01*
X1377000D01*
G01X1378250D02*
X1379000Y1272500D01*
G01X1379900Y1273100D02*
X1380200Y1272750D01*
X1380600Y1272550D01*
X1381050Y1272500D01*
X1381450Y1272550D01*
X1381850Y1272800D01*
X1382100Y1273100D01*
X1382150Y1273400D01*
X1382050Y1273750D01*
X1381700Y1274000D01*
X1381350Y1274100D01*
X1380900D01*
G01X1381350D02*
X1381650Y1274250D01*
X1381900Y1274500D01*
X1382000Y1274800D01*
X1381900Y1275100D01*
X1381650Y1275350D01*
X1381200Y1275500D01*
X1380750Y1275450D01*
X1380300Y1275250D01*
G01X1377000Y1277000D02*
Y1280000D01*
X1378250D01*
X1378650Y1279850D01*
X1378900Y1279650D01*
X1379000Y1279250D01*
X1378900Y1278850D01*
X1378600Y1278600D01*
X1378250Y1278450D01*
X1377000D01*
G01X1378250D02*
X1379000Y1277000D01*
G01X1381600D02*
Y1280000D01*
X1379750Y1277850D01*
X1382250D01*
G01X1399600Y1261250D02*
X1399300Y1261400D01*
X1398950Y1261500D01*
X1398550D01*
X1398100Y1261350D01*
X1397750Y1261100D01*
X1397500Y1260800D01*
X1397300Y1260300D01*
X1397250Y1259850D01*
X1397350Y1259400D01*
X1397500Y1259100D01*
X1397800Y1258800D01*
X1398150Y1258600D01*
X1398500Y1258500D01*
X1398850D01*
X1399200Y1258600D01*
X1399500Y1258750D01*
X1399750Y1258950D01*
G01X1401400Y1258500D02*
X1401500Y1259150D01*
X1401650Y1259700D01*
X1401850Y1260200D01*
X1402100Y1260750D01*
X1402500Y1261500D01*
X1400500D01*
G01X1399600Y1274750D02*
X1399300Y1274900D01*
X1398950Y1275000D01*
X1398550D01*
X1398100Y1274850D01*
X1397750Y1274600D01*
X1397500Y1274300D01*
X1397300Y1273800D01*
X1397250Y1273350D01*
X1397350Y1272900D01*
X1397500Y1272600D01*
X1397800Y1272300D01*
X1398150Y1272100D01*
X1398500Y1272000D01*
X1398850D01*
X1399200Y1272100D01*
X1399500Y1272250D01*
X1399750Y1272450D01*
G01X1400400Y1272600D02*
X1400700Y1272250D01*
X1401100Y1272050D01*
X1401550Y1272000D01*
X1401950Y1272050D01*
X1402350Y1272300D01*
X1402600Y1272600D01*
X1402650Y1272900D01*
X1402550Y1273250D01*
X1402200Y1273500D01*
X1401850Y1273600D01*
X1401400D01*
G01X1401850D02*
X1402150Y1273750D01*
X1402400Y1274000D01*
X1402500Y1274300D01*
X1402400Y1274600D01*
X1402150Y1274850D01*
X1401700Y1275000D01*
X1401250Y1274950D01*
X1400800Y1274750D01*
G01X1399600Y1270250D02*
X1399300Y1270400D01*
X1398950Y1270500D01*
X1398550D01*
X1398100Y1270350D01*
X1397750Y1270100D01*
X1397500Y1269800D01*
X1397300Y1269300D01*
X1397250Y1268850D01*
X1397350Y1268400D01*
X1397500Y1268100D01*
X1397800Y1267800D01*
X1398150Y1267600D01*
X1398500Y1267500D01*
X1398850D01*
X1399200Y1267600D01*
X1399500Y1267750D01*
X1399750Y1267950D01*
G01X1402100Y1267500D02*
Y1270500D01*
X1400250Y1268350D01*
X1402750D01*
G01X1406100Y1314250D02*
X1405800Y1314400D01*
X1405450Y1314500D01*
X1405050D01*
X1404600Y1314350D01*
X1404250Y1314100D01*
X1404000Y1313800D01*
X1403800Y1313300D01*
X1403750Y1312850D01*
X1403850Y1312400D01*
X1404000Y1312100D01*
X1404300Y1311800D01*
X1404650Y1311600D01*
X1405000Y1311500D01*
X1405350D01*
X1405700Y1311600D01*
X1406000Y1311750D01*
X1406250Y1311950D01*
G01X1407050Y1314000D02*
X1407350Y1314300D01*
X1407700Y1314450D01*
X1408100Y1314500D01*
X1408600Y1314400D01*
X1408950Y1314150D01*
X1409050Y1313850D01*
X1409000Y1313550D01*
X1408800Y1313300D01*
X1407800Y1312800D01*
X1407350Y1312450D01*
X1407050Y1311950D01*
X1406950Y1311500D01*
X1409050D01*
G01X1421700Y1246000D02*
Y1249000D01*
X1423000Y1246500D01*
X1424300Y1249000D01*
Y1246000D01*
G01X1426000D02*
Y1249000D01*
X1425400Y1248400D01*
G01Y1246000D02*
X1426600D01*
G01X1420500Y1311500D02*
Y1312850D01*
X1419500Y1314500D01*
G01X1421500D02*
X1420500Y1312850D01*
G01X1423500Y1311500D02*
Y1314500D01*
X1422900Y1313900D01*
G01Y1311500D02*
X1424100D01*
G54D12*
G01X1327363Y1295276D02*
X1327953Y1294292D01*
X1331300D01*
Y1303741D01*
X1340355D01*
Y1294292D01*
X1350394D01*
Y1264763D01*
X1340355D01*
Y1255315D01*
X1331300D01*
Y1264763D01*
X1327953D01*
X1327363Y1263780D01*
Y1295276D01*
G01X1327953Y1294292D02*
Y1264763D01*
G01X1395000Y1271000D02*
X1360000D01*
Y1241000D01*
X1395000D01*
Y1271000D01*
G01X1384008Y1268795D02*
Y1243205D01*
X1369992D01*
Y1268795D01*
X1384008D01*
G01X1347500Y1256500D02*
X1353500D01*
Y1262500D01*
X1347500D01*
G01X1359000Y1244500D02*
Y1249500D01*
X1347000D01*
Y1244500D01*
X1359000D01*
G01X1353134Y1281177D02*
Y1315823D01*
X1394866D01*
Y1281177D01*
X1353134D01*
G01X1359500Y1276000D02*
Y1271000D01*
X1371500D01*
Y1276000D01*
X1359500D01*
G01Y1281000D02*
Y1276000D01*
X1371500D01*
Y1281000D01*
X1359500D01*
G01X1358203Y1294900D02*
G03I-1703J0D01*
G01X1354315Y1292594D02*
Y1304406D01*
X1393685D01*
Y1292594D01*
X1354315D01*
G01X1347894Y1298681D02*
X1352894D01*
Y1310681D01*
X1347894D01*
Y1298681D01*
G01X1396500Y1252500D02*
Y1246500D01*
X1402500D01*
Y1252500D01*
G01X1404000Y1245500D02*
X1409000D01*
Y1257500D01*
X1404000D01*
Y1245500D01*
G01X1383000Y1276000D02*
Y1271000D01*
X1395000D01*
Y1276000D01*
X1383000D01*
G01Y1281000D02*
Y1276000D01*
X1395000D01*
Y1281000D01*
X1383000D01*
G01X1398000Y1277000D02*
X1403000D01*
Y1289000D01*
X1398000D01*
Y1277000D01*
G01X1424342Y1259378D02*
Y1306622D01*
X1418437D01*
Y1314496D01*
X1410563D01*
Y1306622D01*
X1404658D01*
Y1259378D01*
X1410563D01*
Y1251504D01*
X1418437D01*
Y1259378D01*
X1424342D01*
G01X1398000Y1304000D02*
X1403000D01*
Y1316000D01*
X1398000D01*
Y1304000D01*
G01X1403000Y1302500D02*
X1398000D01*
Y1290500D01*
X1403000D01*
Y1302500D01*
G01X1482500Y1256000D02*
G02X1472500Y1246000I-10000J0D01*
G01X1427500D01*
Y1304000D01*
G02X1437500Y1314000I10000J0D01*
G01X1472500D01*
G02X1482500Y1304000I0J-10000D01*
G01Y1256000D01*
M02*
